<svg xmlns="http://www.w3.org/2000/svg" width="1200" height="630" viewBox="0 0 1200 630">
  <rect width="1200" height="630" fill="#0c0e12"/>
  <g stroke="#c9952a" stroke-opacity="0.18" stroke-width="1">
    <line x1="120" y1="120" x2="330" y2="90"/><line x1="330" y1="90" x2="520" y2="170"/><line x1="520" y1="170" x2="700" y2="110"/>
    <line x1="700" y1="110" x2="930" y2="160"/><line x1="930" y1="160" x2="1080" y2="80"/><line x1="520" y1="170" x2="600" y2="330"/>
    <line x1="120" y1="120" x2="220" y2="290"/><line x1="220" y1="290" x2="600" y2="330"/><line x1="930" y1="160" x2="980" y2="360"/>
    <line x1="600" y1="330" x2="980" y2="360"/><line x1="220" y1="290" x2="160" y2="520"/><line x1="600" y1="330" x2="700" y2="540"/>
    <line x1="980" y1="360" x2="1060" y2="540"/><line x1="160" y1="520" x2="700" y2="540"/><line x1="700" y1="540" x2="1060" y2="540"/>
  </g>
  <g fill="#c9952a" fill-opacity="0.8">
    <circle cx="120" cy="120" r="3"/><circle cx="330" cy="90" r="3"/><circle cx="520" cy="170" r="3"/><circle cx="700" cy="110" r="3"/>
    <circle cx="930" cy="160" r="3"/><circle cx="1080" cy="80" r="3"/><circle cx="600" cy="330" r="3"/><circle cx="220" cy="290" r="3"/>
    <circle cx="980" cy="360" r="3"/><circle cx="160" cy="520" r="3"/><circle cx="700" cy="540" r="3"/><circle cx="1060" cy="540" r="3"/>
  </g>
  <text x="100" y="270" font-family="Space Grotesk, Helvetica Neue, Arial, sans-serif" font-weight="700" font-size="88" fill="#e8ecf2" letter-spacing="-2">ASHOK SINGH</text>
  <rect x="100" y="300" width="120" height="4" fill="#c9952a"/>
  <text x="100" y="368" font-family="Inter, Helvetica Neue, Arial, sans-serif" font-weight="500" font-size="36" fill="#8b9199">B2B Growth Systems</text>
  <text x="100" y="440" font-family="JetBrains Mono, Menlo, monospace" font-size="20" fill="#c9952a">I build systems that turn clicks into revenue.</text>
  <text x="100" y="560" font-family="JetBrains Mono, Menlo, monospace" font-size="18" fill="#6b7280">whoisashok.com</text>
</svg>
